<?xml version="1.0" standalone="no"?><!DOCTYPE svg PUBLIC "-//W3C//DTD SVG 1.1//EN" "http://www.w3.org/Graphics/SVG/1.1/DTD/svg11.dtd"><svg t="1644642848913" class="icon" viewBox="0 0 1024 1024" version="1.1" xmlns="http://www.w3.org/2000/svg" p-id="3048" xmlns:xlink="http://www.w3.org/1999/xlink" width="200" height="200"><defs><style type="text/css"></style></defs><path d="M130 128m-114 0a7.125 7.125 0 1 0 228 0 7.125 7.125 0 1 0-228 0Z" p-id="3049"></path><path d="M514 128m-114 0a7.125 7.125 0 1 0 228 0 7.125 7.125 0 1 0-228 0Z" p-id="3050"></path><path d="M898 128m-114 0a7.125 7.125 0 1 0 228 0 7.125 7.125 0 1 0-228 0Z" p-id="3051"></path><path d="M130 512m-114 0a7.125 7.125 0 1 0 228 0 7.125 7.125 0 1 0-228 0Z" p-id="3052"></path><path d="M514 512m-114 0a7.125 7.125 0 1 0 228 0 7.125 7.125 0 1 0-228 0Z" p-id="3053"></path><path d="M898 512m-114 0a7.125 7.125 0 1 0 228 0 7.125 7.125 0 1 0-228 0Z" p-id="3054"></path><path d="M130 896m-114 0a7.125 7.125 0 1 0 228 0 7.125 7.125 0 1 0-228 0Z" p-id="3055"></path><path d="M514 896m-114 0a7.125 7.125 0 1 0 228 0 7.125 7.125 0 1 0-228 0Z" p-id="3056"></path><path d="M898 896m-114 0a7.125 7.125 0 1 0 228 0 7.125 7.125 0 1 0-228 0Z" p-id="3057"></path></svg>